<svg width="50" height="36" fill="none" xmlns="http://www.w3.org/2000/svg"><g clip-path="url(#a)" fill="#218BEA"><path d="M49.507 13.57c-.136-.107-1.402-1.065-4.071-1.065-.705.003-1.409.064-2.104.181-.517-3.548-3.445-5.278-3.576-5.356l-.717-.414-.471.681a9.645 9.645 0 0 0-1.275 2.986c-.478 2.025-.187 3.928.84 5.555-1.24.692-3.23.862-3.632.877H1.565a1.567 1.567 0 0 0-1.563 1.56c-.038 2.891.45 5.765 1.443 8.48 1.134 2.981 2.822 5.177 5.018 6.521 2.46 1.51 6.459 2.373 10.99 2.373 2.048.006 4.092-.18 6.105-.555a25.481 25.481 0 0 0 7.965-2.899 21.912 21.912 0 0 0 5.437-4.459c2.609-2.96 4.163-6.256 5.32-9.185h.46c2.857 0 4.614-1.145 5.583-2.105a6.106 6.106 0 0 0 1.472-2.185l.205-.6-.493-.39Z"/><path d="M4.618 16.05H9.03a.386.386 0 0 0 .386-.387v-3.939a.386.386 0 0 0-.384-.388H4.618a.386.386 0 0 0-.386.386v3.941c0 .213.173.386.386.386ZM10.7 16.05h4.414a.386.386 0 0 0 .385-.387v-3.939a.386.386 0 0 0-.383-.388H10.7a.388.388 0 0 0-.387.388v3.939a.388.388 0 0 0 .387.386ZM16.875 16.05h4.413a.386.386 0 0 0 .386-.387v-3.939a.386.386 0 0 0-.384-.388h-4.415a.386.386 0 0 0-.386.386v3.941c0 .213.173.386.386.386ZM22.976 16.05h4.414a.388.388 0 0 0 .387-.387v-3.939a.388.388 0 0 0-.387-.388h-4.414a.386.386 0 0 0-.385.386v3.941c0 .213.172.386.385.386ZM10.7 10.382h4.414a.388.388 0 0 0 .385-.388V6.055a.386.386 0 0 0-.386-.386H10.7a.388.388 0 0 0-.387.386v3.939a.39.39 0 0 0 .387.388ZM16.875 10.382h4.413a.388.388 0 0 0 .386-.388V6.055a.386.386 0 0 0-.386-.386h-4.413a.386.386 0 0 0-.386.386v3.939c0 .213.172.387.386.388ZM22.976 10.382h4.414a.39.39 0 0 0 .387-.388V6.055a.388.388 0 0 0-.387-.386h-4.414a.386.386 0 0 0-.385.386v3.939c0 .213.172.387.385.388ZM22.976 4.713h4.414a.388.388 0 0 0 .387-.386V.387A.388.388 0 0 0 27.39 0h-4.414a.386.386 0 0 0-.385.386v3.941c0 .213.172.386.385.386ZM29.131 16.05h4.414a.388.388 0 0 0 .387-.387v-3.939a.388.388 0 0 0-.387-.388H29.13a.386.386 0 0 0-.385.386v3.941c0 .213.173.386.385.386Z"/></g><defs><clipPath id="a"><path fill="#fff" d="M0 0h50v35.949H0z"/></clipPath></defs></svg>