<svg width="34" height="50" fill="none" xmlns="http://www.w3.org/2000/svg"><g clip-path="url(#a)"><path d="M8.337 50c4.6 0 8.333-3.733 8.333-8.333v-8.334H8.337a8.336 8.336 0 0 0-8.334 8.334c0 4.6 3.734 8.333 8.334 8.333Z" fill="#0ACF83"/><path d="M.003 25c0-4.6 3.734-8.333 8.334-8.333h8.333v16.666H8.337A8.336 8.336 0 0 1 .003 25Z" fill="#A259FF"/><path d="M.003 8.333C.003 3.733 3.737 0 8.337 0h8.333v16.667H8.337A8.336 8.336 0 0 1 .003 8.333Z" fill="#F24E1E"/><path d="M16.67 0h8.333c4.6 0 8.334 3.733 8.334 8.333s-3.734 8.334-8.334 8.334H16.67V0Z" fill="#FF7262"/><path d="M33.337 25c0 4.6-3.734 8.333-8.334 8.333A8.336 8.336 0 0 1 16.67 25c0-4.6 3.733-8.333 8.333-8.333S33.337 20.4 33.337 25Z" fill="#1ABCFE"/></g><defs><clipPath id="a"><path fill="#fff" d="M0 0h33.34v50H0z"/></clipPath></defs></svg>