<svg width="50" height="48" fill="none" xmlns="http://www.w3.org/2000/svg"><path d="M47.086 1.429 28.315 15.314l3.5-8.185 15.27-5.7Z" fill="#E17726" stroke="#E17726" stroke-width=".25" stroke-linecap="round" stroke-linejoin="round"/><path d="m3.8 1.429 18.6 14-3.329-8.286L3.8 1.429Zm36.529 32.185-5 7.629 10.7 2.943 3.057-10.4-8.758-.172Zm-38.515.172 3.043 10.4 10.671-2.943-4.97-7.629-8.744.172Z" fill="#E27625" stroke="#E27625" stroke-width=".25" stroke-linecap="round" stroke-linejoin="round"/><path d="m14.957 20.728-2.971 4.486 10.571.486-.343-11.386-7.257 6.429v-.015Zm20.971.015-7.371-6.572-.243 11.529 10.572-.486-2.958-4.471Zm-20.4 20.5 6.415-3.086-5.515-4.286-.9 7.372Zm13.429-3.1 6.371 3.1-.857-7.386-5.514 4.286Z" fill="#E27625" stroke="#E27625" stroke-width=".25" stroke-linecap="round" stroke-linejoin="round"/><path d="m35.329 41.243-6.372-3.086.515 4.143-.058 1.757 5.915-2.814Zm-19.8 0 5.943 2.814-.043-1.757.514-4.143-6.414 3.086Z" fill="#D5BFB2" stroke="#D5BFB2" stroke-width=".25" stroke-linecap="round" stroke-linejoin="round"/><path d="m21.571 31.114-5.285-1.543 3.742-1.714 1.558 3.257h-.015Zm7.729 0 1.571-3.271 3.758 1.714-5.33 1.572v-.015Z" fill="#233447" stroke="#233447" stroke-width=".25" stroke-linecap="round" stroke-linejoin="round"/><path d="m15.528 41.243.929-7.629-5.9.172 4.971 7.457Zm18.9-7.629.9 7.629 5-7.458-5.9-.17Zm4.472-8.4-10.572.486.972 5.428 1.571-3.285 3.757 1.714 4.272-4.343Zm-22.614 4.357 3.742-1.714 1.558 3.257.985-5.428L12 25.213l4.285 4.357Z" fill="#CC6228" stroke="#CC6228" stroke-width=".25" stroke-linecap="round" stroke-linejoin="round"/><path d="m12 25.214 4.428 8.643-.143-4.286L12 25.214Zm22.628 4.357-.171 4.286 4.428-8.643-4.257 4.357ZM22.571 25.7l-1 5.428 1.257 6.4.286-8.442-.543-3.386Zm5.743 0L27.8 29.07l.257 8.457 1.243-6.414-.986-5.428v.014Z" fill="#E27525" stroke="#E27525" stroke-width=".25" stroke-linecap="round" stroke-linejoin="round"/><path d="m29.3 31.114-1.243 6.415.9.628 5.5-4.286.171-4.3-5.328 1.543Zm-13.015-1.543.143 4.286 5.515 4.286.885-.614-1.242-6.415-5.315-1.543h.014Z" fill="#F5841F" stroke="#F5841F" stroke-width=".25" stroke-linecap="round" stroke-linejoin="round"/><path d="m29.429 44.057.043-1.757-.486-.4H21.9l-.471.4.043 1.757-5.943-2.814 2.085 1.714 4.215 2.9h7.214l4.229-2.914 2.057-1.7-5.915 2.814h.015Z" fill="#C0AC9D" stroke="#C0AC9D" stroke-width=".25" stroke-linecap="round" stroke-linejoin="round"/><path d="m28.957 38.143-.9-.614h-5.229l-.885.628-.515 4.143.472-.4h7.086l.485.4-.514-4.143v-.014Z" fill="#161616" stroke="#161616" stroke-width=".25" stroke-linecap="round" stroke-linejoin="round"/><path d="m47.886 16.214 1.571-7.643-2.371-7.142-18.143 13.428 6.985 5.872 9.858 2.871 2.171-2.529-.943-.685 1.5-1.372-1.143-.885 1.5-1.143-1-.772h.015ZM1.428 8.557l1.6 7.657L2 16.971l1.528 1.143-1.142.9 1.485 1.372-.943.685L5.1 23.6l9.857-2.857 6.986-5.9L3.8 1.429 1.428 8.557Z" fill="#763E1A" stroke="#763E1A" stroke-width=".25" stroke-linecap="round" stroke-linejoin="round"/><path d="m45.786 23.6-9.858-2.857 2.972 4.471-4.429 8.643 5.858-.071h8.757l-3.3-10.186Zm-30.829-2.871L5.1 23.6 1.814 33.786h8.757l5.857.071L12 25.214l2.971-4.485h-.014ZM28.314 25.7l.643-10.857 2.857-7.714H19.071l2.857 7.714.643 10.857.243 3.4v8.429h5.243l.029-8.429.228-3.4Z" fill="#F5841F" stroke="#F5841F" stroke-width=".25" stroke-linecap="round" stroke-linejoin="round"/></svg>