<svg width="50" height="50" fill="none" xmlns="http://www.w3.org/2000/svg"><g clip-path="url(#a)"><path d="M28.184.204a25 25 0 1 0-6.368 49.593A25 25 0 0 0 28.184.204Z" fill="#FF6C37"/><path d="M18.074 26.58a.095.095 0 0 0 .11.05l4-.863-1.682-1.705-2.398 2.398a.093.093 0 0 0-.03.12ZM36.804 9.405a3.728 3.728 0 1 0 1.57 7.11L35.84 13.98a.313.313 0 0 1 0-.442l3.313-3.31a3.727 3.727 0 0 0-2.348-.823Z" fill="#fff"/><path d="m39.607 10.658-3.105 3.092 2.435 2.435a3.75 3.75 0 0 0 .67-5.527ZM33.394 16.365h-.055a.956.956 0 0 0-.192.018h-.023c-.07.015-.138.035-.205.06l-.052.025a.977.977 0 0 0-.145.075l-.055.035c-.06.041-.118.088-.17.14l-9.208 9.21 1.14 1.14 9.75-8.558c.055-.048.105-.102.15-.16l.042-.055c.034-.049.064-.1.09-.152.016-.03.028-.06.04-.09a.986.986 0 0 0 .043-.123c0-.03.018-.06.025-.09.012-.062.02-.124.025-.187V17.435c0-.045 0-.06-.013-.09a1.216 1.216 0 0 0-.952-.957h-.048a1.278 1.278 0 0 0-.187-.023ZM20.932 23.62l1.89 1.88 9.232-9.233c.3-.293.692-.476 1.11-.517-1.632-1.25-3.413-.923-12.232 7.87ZM34.7 18.87l-.113.11-9.75 8.555 1.657 1.655c4.11-3.887 7.758-7.59 8.205-10.32ZM10.38 38.912a.09.09 0 0 0 .08.065l4.25.293-2.383-2.383-1.928 1.925a.095.095 0 0 0-.02.1ZM12.771 36.445l2.513 2.513a.191.191 0 0 0 .237.032.186.186 0 0 0 .098-.218l-.422-1.804a.54.54 0 0 1 .277-.603c4.405-2.207 7.957-4.48 10.565-6.75l-1.75-1.75-3.75.808-7.768 7.772ZM23.752 27.335l-.94-.94-1.3 1.297a.063.063 0 0 0 0 .08.06.06 0 0 0 .072.033l2.168-.47Z" fill="#fff"/><path d="M39.694 12.673a.29.29 0 1 0-.517.25.869.869 0 0 1-.108.94.292.292 0 0 0 .068.43.29.29 0 0 0 .278.016.296.296 0 0 0 .1-.076 1.447 1.447 0 0 0 .18-1.56Z" fill="#FF6C37"/></g><defs><clipPath id="a"><path fill="#fff" d="M0 0h50v50H0z"/></clipPath></defs></svg>