<svg width="45" height="36" fill="none" xmlns="http://www.w3.org/2000/svg"><g clip-path="url(#a)"><path d="M44.425 4.261a18.26 18.26 0 0 1-5.234 1.432A9.12 9.12 0 0 0 43.198.664 18.278 18.278 0 0 1 37.41 2.87 9.114 9.114 0 0 0 30.758 0c-5.034 0-9.115 4.069-9.115 9.088 0 .712.08 1.406.236 2.071-7.575-.379-14.29-3.997-18.786-9.496a9.025 9.025 0 0 0-1.234 4.57 9.077 9.077 0 0 0 4.054 7.564 9.099 9.099 0 0 1-4.128-1.137v.114c0 4.404 3.14 8.077 7.31 8.912a9.151 9.151 0 0 1-4.116.156 9.12 9.12 0 0 0 8.515 6.311 18.32 18.32 0 0 1-11.32 3.89c-.736 0-1.461-.042-2.174-.126A25.85 25.85 0 0 0 13.972 36c16.764 0 25.932-13.848 25.932-25.858 0-.394-.009-.786-.026-1.176a18.488 18.488 0 0 0 4.547-4.705Z" fill="#2AA9E0"/></g><defs><clipPath id="a"><path fill="#fff" d="M0 0h44.425v36H0z"/></clipPath></defs></svg>