<svg width="50" height="50" fill="none" xmlns="http://www.w3.org/2000/svg"><path d="M42.857 0H7.143A7.143 7.143 0 0 0 0 7.143v35.714A7.143 7.143 0 0 0 7.143 50h35.714A7.143 7.143 0 0 0 50 42.857V7.143A7.143 7.143 0 0 0 42.857 0Z" fill="#3A48FF"/><path d="M32.232 20.678s-2.41 7.572-2.607 8.197c-.072-.643-1.84-14.232-1.84-14.232-4.107 0-6.303 2.928-7.464 6.018 0 0-2.928 7.589-3.178 8.232-.018-.59-.447-8.143-.447-8.143-.25-3.786-3.714-6.09-6.518-6.09l3.393 20.59c4.304-.018 6.625-2.929 7.84-6.018 0 0 2.589-6.696 2.696-7 .018.286 1.857 13.018 1.857 13.018 4.322 0 6.643-2.732 7.893-5.714l6.054-14.875c-4.268 0-6.518 2.91-7.679 6.018Z" fill="#fff"/></svg>